<?xml version="1.0" standalone="no"?>
<!DOCTYPE svg PUBLIC "-//W3C//DTD SVG 20010904//EN"
 "http://www.w3.org/TR/2001/REC-SVG-20010904/DTD/svg10.dtd">
<svg version="1.0" xmlns="http://www.w3.org/2000/svg"
 width="500.000000pt" height="500.000000pt" viewBox="0 0 500.000000 500.000000"
 preserveAspectRatio="xMidYMid meet">

<g transform="translate(0.000000,500.000000) scale(0.100000,-0.100000)"
fill="#000000" stroke="none">
<path d="M2217 4815 c-268 -34 -602 -146 -842 -283 -163 -93 -334 -225 -485
-373 -219 -216 -412 -517 -518 -809 -11 -30 -28 -75 -37 -100 -24 -65 -72
-272 -90 -387 -22 -149 -29 -387 -16 -549 20 -255 61 -433 153 -667 126 -321
273 -544 522 -792 329 -328 656 -519 1061 -619 176 -44 246 -55 420 -67 443
-30 905 78 1260 294 365 223 655 507 841 823 167 283 271 578 320 899 21 139
24 481 5 615 -75 546 -285 980 -654 1353 -173 174 -369 317 -582 424 -213 107
-426 177 -675 224 -149 27 -519 35 -683 14z m752 -65 c11 -6 2 -16 -35 -39
-58 -37 -87 -46 -108 -34 -14 8 -12 15 15 52 31 41 33 42 73 36 22 -4 47 -11
55 -15z m-558 -110 c4 -25 12 -85 18 -135 7 -49 17 -123 23 -163 6 -40 8 -75
5 -78 -2 -3 -29 -8 -59 -11 l-54 -5 -13 108 c-8 60 -16 115 -19 122 -2 8 -23
-14 -48 -52 -25 -37 -50 -66 -57 -66 -6 0 -36 23 -66 51 -29 28 -55 48 -57 46
-4 -3 4 -73 22 -198 l6 -46 -38 -6 c-82 -14 -78 -17 -92 91 -7 53 -20 148 -29
210 -9 62 -13 115 -10 119 4 3 28 8 54 10 44 4 51 1 88 -33 22 -21 54 -51 72
-67 l31 -29 52 78 c65 97 75 106 125 102 39 -3 40 -4 46 -48z m455 -1 c50 -13
46 -5 85 -184 12 -55 30 -135 40 -179 17 -70 24 -117 17 -116 -2 1 -28 7 -58
14 -53 12 -55 14 -65 56 l-11 44 -89 19 c-98 21 -88 24 -128 -36 -10 -16 -20
-18 -58 -12 -25 4 -51 10 -58 14 -9 6 25 65 114 199 136 207 129 201 211 181z
m477 -124 c100 -40 167 -72 167 -81 0 -20 -22 -64 -32 -64 -5 0 -36 11 -70 25
-34 14 -62 25 -64 25 -1 0 -30 -71 -65 -157 -34 -87 -63 -160 -65 -162 -4 -5
-94 31 -100 40 -2 4 23 76 56 159 33 82 60 154 60 159 0 5 -28 19 -62 31 -35
13 -66 26 -70 29 -3 3 0 22 9 43 17 44 3 47 236 -47z m-1610 0 c9 -20 17 -37
17 -38 0 -2 -40 -23 -89 -47 l-89 -43 16 -34 c9 -18 19 -33 24 -33 5 0 44 18
88 40 l80 40 20 -40 20 -40 -82 -41 c-46 -23 -84 -42 -86 -44 -7 -6 33 -75 44
-75 6 0 45 18 87 40 41 22 79 40 85 40 11 0 48 -68 41 -74 -3 -3 -236 -122
-279 -143 -7 -4 -206 385 -200 390 10 10 266 136 276 136 6 1 18 -15 27 -34z
m1953 -172 c24 -16 44 -32 44 -36 0 -5 -52 -89 -116 -187 l-115 -179 -50 31
-50 30 18 28 c10 15 63 98 118 184 55 85 102 156 104 156 2 0 23 -12 47 -27z
m-2505 -298 c127 -155 135 -162 156 -144 10 8 47 39 82 69 l64 54 28 -34 c23
-27 26 -37 17 -46 -7 -7 -65 -55 -128 -108 l-115 -96 -30 34 c-83 92 -240 289
-240 301 0 17 76 78 85 68 4 -5 40 -48 81 -98z m2779 69 c83 -25 200 -155 200
-222 0 -16 -57 -72 -74 -72 -2 0 -10 17 -16 38 -30 93 -93 152 -165 152 -72 0
-114 -42 -115 -114 0 -70 38 -121 128 -167 23 -12 42 -25 42 -29 0 -4 -16 -20
-36 -35 -35 -27 -36 -27 -74 -10 -53 24 -129 101 -156 160 -56 119 0 257 123
301 50 17 79 17 143 -2z m-3063 -270 c2 -6 -19 -45 -47 -88 -27 -42 -50 -78
-50 -81 0 -2 13 -13 29 -25 l30 -21 52 78 c29 43 53 80 55 82 2 2 33 -17 72
-45 2 -1 -19 -36 -47 -78 -28 -41 -51 -79 -51 -83 0 -4 15 -18 34 -30 40 -26
37 -28 105 80 24 37 46 67 48 67 3 0 21 -9 40 -21 31 -20 33 -23 20 -43 -8
-11 -47 -72 -86 -133 -40 -62 -75 -113 -78 -113 -13 0 -363 226 -363 235 0 2
38 63 85 135 l86 131 31 -18 c17 -10 33 -23 35 -29z m3533 -314 l30 -59 -63
-78 c-34 -43 -100 -126 -145 -186 -46 -59 -87 -105 -91 -103 -4 3 -17 27 -30
54 l-24 50 28 36 27 36 -40 77 -41 78 -48 0 c-47 0 -49 1 -73 47 -13 26 -22
50 -18 53 3 3 68 13 144 21 77 8 168 19 204 23 114 15 107 17 140 -49z m-1137
25 c14 -14 28 -40 31 -58 5 -26 94 -724 161 -1267 11 -87 19 -118 32 -128 10
-8 144 -90 298 -184 446 -271 485 -298 467 -324 -6 -8 -522 -114 -797 -163
-27 -5 -77 -14 -110 -20 -33 -6 -94 -17 -135 -25 -41 -8 -156 -29 -255 -46
-99 -17 -263 -47 -365 -66 -252 -48 -342 -64 -361 -64 -19 0 -157 104 -299
224 -52 45 -135 115 -185 156 -49 41 -92 77 -95 80 -3 3 -31 27 -63 54 -44 37
-57 54 -53 69 2 11 -4 31 -15 46 -15 21 -28 100 -69 411 -28 212 -69 520 -91
685 -23 165 -42 334 -43 377 -1 67 2 79 22 101 16 17 38 27 70 31 60 7 662 56
1172 95 217 17 413 32 435 34 22 2 81 4 131 5 85 2 93 0 117 -23z m-2664 -86
c36 -13 38 -22 11 -89 -27 -68 -26 -74 18 -89 20 -7 92 -34 160 -59 111 -41
122 -47 116 -66 -11 -37 -33 -86 -38 -86 -3 0 -72 25 -154 55 -82 30 -154 55
-160 55 -9 0 -26 -40 -57 -128 -4 -10 -12 -9 -41 3 -20 8 -38 15 -41 15 -7 0
24 91 124 358 17 47 17 46 62 31z m3931 -424 c17 -32 -2 -57 -39 -53 -27 3
-39 33 -27 64 9 23 51 17 66 -11z m-3892 -214 c18 -11 11 -61 -10 -75 -23 -14
-52 3 -56 33 -6 40 32 64 66 42z m3660 -43 c32 -32 -1 -83 -46 -71 -21 5 -27
20 -22 53 4 29 46 40 68 18z m203 -123 c15 -111 26 -125 102 -125 69 0 66 -11
-8 -30 -70 -19 -82 -37 -90 -128 -11 -142 -20 -149 -34 -30 -10 73 -19 112
-30 122 -9 8 -43 18 -76 23 l-60 9 61 18 c71 21 83 35 95 125 10 71 19 105 25
99 2 -3 9 -40 15 -83z m-4036 -159 c18 -13 26 -68 11 -83 -8 -9 -71 -7 -85 2
-17 10 -13 66 7 81 22 17 44 17 67 0z m286 -106 c22 -12 27 -68 7 -88 -13 -13
-47 -16 -72 -6 -23 9 -22 80 2 93 22 13 39 13 63 1z m3547 -112 c35 -35 -4
-82 -48 -58 -34 18 -20 70 20 70 9 0 21 -5 28 -12z m-3760 -180 c28 -28 7 -78
-33 -78 -27 0 -45 18 -45 45 0 27 18 45 45 45 12 0 26 -5 33 -12z m4066 -120
c20 -28 4 -58 -29 -58 -39 0 -53 51 -21 72 19 13 34 9 50 -14z m-3830 -94 c33
-32 10 -79 -36 -72 -17 2 -24 11 -26 31 -6 49 30 73 62 41z m3596 -43 c19 -36
-11 -68 -51 -56 -19 6 -27 54 -12 68 13 14 53 6 63 -12z m-3467 -318 c7 -7 47
-16 90 -19 42 -4 77 -11 77 -15 0 -5 -8 -9 -17 -9 -9 0 -45 -5 -81 -11 -62
-11 -65 -13 -80 -50 -8 -22 -18 -39 -22 -39 -4 0 -15 18 -25 39 -19 42 -23 44
-135 57 -70 8 -61 22 16 23 98 2 113 12 129 86 l7 30 14 -40 c8 -22 20 -46 27
-52z m3295 -255 c20 -20 15 -66 -8 -73 -34 -11 -60 4 -60 34 0 30 16 51 40 51
9 0 21 -5 28 -12z m-374 -95 c9 -19 11 -36 5 -51 -8 -20 -15 -23 -51 -20 -41
3 -43 5 -46 36 -4 42 12 62 49 62 21 0 32 -7 43 -27z m-2915 -22 c36 -36 -4
-95 -49 -71 -26 14 -27 65 -2 79 24 14 29 14 51 -8z m316 -44 c8 -24 6 -31
-10 -43 -38 -28 -73 1 -61 50 10 39 56 34 71 -7z m2097 -233 c9 -27 42 -116
72 -199 30 -82 54 -151 52 -153 -2 -1 -27 -12 -55 -23 -39 -14 -53 -16 -56 -7
-32 96 -80 216 -85 213 -4 -3 -18 -33 -31 -67 -12 -35 -27 -66 -33 -70 -6 -4
-39 9 -74 28 -35 20 -66 33 -69 30 -3 -3 12 -54 35 -113 l40 -108 -51 -23
c-27 -13 -53 -19 -57 -15 -5 4 -28 64 -53 133 -25 69 -57 157 -71 195 -24 65
-25 71 -9 82 42 32 78 27 168 -22 47 -26 87 -46 89 -44 1 2 17 43 36 91 35 94
39 100 85 116 42 15 47 12 67 -44z m-1712 21 c7 -8 13 -26 13 -40 0 -35 -20
-55 -54 -55 -30 0 -49 23 -49 59 0 43 63 69 90 36z m313 -26 c20 -7 37 -18 37
-24 0 -7 -19 -61 -41 -121 -66 -174 -68 -208 -12 -233 64 -29 88 -4 148 159
26 69 51 129 56 134 9 10 86 -11 95 -25 7 -12 -86 -259 -115 -302 -28 -43 -85
-77 -130 -77 -45 0 -130 35 -163 67 -33 32 -52 92 -42 136 14 70 107 307 118
303 6 -3 28 -10 49 -17z m-638 -15 c24 -24 16 -76 -14 -90 -40 -20 -71 1 -71
47 0 54 49 79 85 43z m2459 -50 c9 -8 16 -22 16 -29 0 -16 -27 -45 -41 -45
-44 0 -67 59 -31 79 24 15 38 13 56 -5z m-1079 -68 l40 -12 3 -57 c3 -65 0
-67 -61 -35 -52 27 -162 32 -177 8 -21 -32 -6 -44 84 -67 133 -34 168 -65 168
-147 0 -57 -28 -98 -85 -128 -76 -40 -305 -24 -308 21 -2 30 3 96 7 100 2 3
23 -6 47 -18 74 -40 207 -41 207 -2 0 28 -20 39 -99 57 -116 26 -161 68 -161
151 0 51 35 97 95 124 47 22 176 25 240 5z"/>
<path d="M2783 4456 c-18 -30 -33 -56 -33 -60 0 -6 67 -26 88 -26 6 0 12 9 12
19 0 28 -22 121 -29 121 -3 0 -21 -25 -38 -54z"/>
<path d="M4235 3463 c-66 -6 -67 -7 -43 -58 12 -25 27 -45 32 -44 6 0 30 25
54 55 47 60 51 56 -43 47z"/>
<path d="M3050 3509 c-58 -4 -170 -12 -250 -18 -80 -6 -203 -15 -275 -21 -71
-5 -190 -14 -262 -20 -197 -15 -363 -27 -603 -45 -167 -12 -218 -19 -232 -32
-24 -21 -23 -70 2 -258 11 -83 25 -186 30 -230 6 -44 15 -111 20 -150 5 -38
14 -108 20 -155 21 -159 31 -235 40 -305 6 -38 17 -128 26 -200 25 -209 33
-222 126 -205 29 5 118 18 198 30 80 11 172 25 205 30 33 5 94 14 135 19 41 6
120 18 175 26 55 8 147 21 205 29 364 52 788 116 802 121 28 11 28 29 -6 285
-9 63 -29 223 -46 355 -17 132 -35 272 -40 310 -5 39 -19 142 -30 230 -11 88
-23 169 -27 180 -11 38 -14 38 -213 24z m-92 -220 c21 -22 33 -47 42 -91 13
-68 6 -80 -40 -76 -22 3 -25 9 -28 45 -4 54 -41 88 -87 79 -44 -9 -59 -30 -65
-89 -5 -50 -6 -52 -37 -55 l-33 -3 0 61 c0 112 45 159 151 160 61 0 69 -2 97
-31z m-602 -95 c4 -14 3 -29 -2 -34 -9 -9 -286 -40 -356 -40 -29 0 -38 5 -43
21 -12 38 15 51 127 61 57 4 110 10 118 12 8 2 45 4 82 5 65 1 68 0 74 -25z
m-458 -26 c17 -17 15 -46 -5 -56 -10 -5 -72 -15 -137 -22 -112 -11 -121 -11
-133 6 -33 45 -11 61 97 72 137 13 165 13 178 0z m1161 -82 c7 -8 19 -71 28
-140 21 -166 26 -159 -150 -175 -72 -7 -148 -14 -167 -17 -63 -10 -77 12 -95
150 -13 107 -13 122 0 143 9 13 23 23 33 24 9 0 67 6 127 13 153 19 210 19
224 2z m-943 -41 c12 -46 2 -51 -118 -64 -62 -7 -146 -17 -186 -22 -122 -15
-170 -12 -177 11 -15 47 2 54 202 76 263 30 271 30 279 -1z m388 -111 c18 -48
-12 -60 -164 -67 l-55 -2 0 35 c0 35 1 35 50 41 106 12 162 10 169 -7z m-288
-31 c9 -34 -16 -53 -70 -53 -23 0 -99 -7 -171 -15 -71 -8 -173 -18 -226 -21
-94 -7 -97 -6 -104 16 -12 38 13 50 121 60 54 5 155 14 224 20 69 6 130 13
135 15 6 2 27 4 47 4 33 1 39 -3 44 -26z m190 -118 c12 -48 7 -50 -195 -69
-105 -10 -195 -15 -201 -11 -14 9 -13 50 3 63 11 9 249 37 349 41 32 1 39 -3
44 -24z m-462 -41 c20 -51 -14 -63 -179 -67 l-90 -2 0 35 0 35 70 6 c147 12
192 10 199 -7z m1274 -276 c28 -231 28 -236 0 -242 -59 -12 -80 -13 -83 -2 -2
6 -11 85 -20 176 -8 91 -18 181 -21 202 -6 40 0 45 67 47 l35 1 22 -182z
m-146 -95 c8 -87 13 -160 11 -162 -2 -2 -27 -6 -57 -9 l-53 -4 -6 83 c-4 46
-9 119 -13 161 l-7 76 29 5 c16 2 41 5 55 6 l26 1 15 -157z m-163 -67 c6 -60
9 -111 6 -114 -5 -6 -89 -21 -93 -18 -2 3 -19 146 -25 211 -2 29 0 30 43 35
25 3 48 3 52 0 3 -3 11 -54 17 -114z m-735 72 c21 -30 20 -54 -4 -78 l-20 -20
45 -97 c25 -53 44 -98 42 -99 -5 -6 -161 -22 -166 -18 -3 2 3 43 12 92 21 107
21 126 2 142 -20 17 -19 59 2 82 23 25 68 23 87 -4z m591 -135 l7 -72 -38 -6
c-22 -3 -47 -8 -56 -9 -18 -4 -22 7 -33 101 -6 49 -5 52 17 57 39 9 83 12 90
6 3 -3 10 -37 13 -77z"/>
<path d="M2842 2998 c-17 -17 -15 -63 3 -78 8 -7 15 -29 15 -49 0 -36 0 -37
39 -33 l38 4 -7 35 c-5 22 -4 45 2 59 18 39 -4 74 -45 74 -18 0 -38 -5 -45
-12z"/>
<path d="M3365 2009 c-27 -4 -156 -24 -285 -43 -129 -20 -280 -42 -335 -51
-55 -8 -163 -25 -240 -36 -77 -11 -165 -24 -195 -29 -30 -5 -118 -18 -195 -29
-268 -40 -338 -51 -343 -56 -6 -6 1 -13 93 -91 205 -173 196 -166 229 -160 17
4 150 27 296 52 146 25 344 58 440 75 183 31 371 63 730 125 118 20 217 38
219 40 9 8 -23 31 -159 113 -83 49 -162 92 -178 94 -15 3 -49 1 -77 -4z"/>
<path d="M3259 1676 c-2 -3 -60 -14 -129 -25 -69 -12 -188 -32 -265 -46 -77
-14 -146 -25 -152 -25 -29 0 -8 -22 94 -101 l106 -82 96 18 c227 42 545 106
550 110 6 6 12 1 -96 73 -50 34 -94 66 -98 72 -6 10 -97 15 -106 6z"/>
</g>
</svg>
